<svg viewBox="0 0 512 512" xmlns="http://www.w3.org/2000/svg"><path d="m0 282.719371.253141 69.366027c0 6.094142-.003169 12.187726.03374 18.281371.031565 5.133152.090656 10.264627.228721 15.396474.301482 11.181501.959002 22.461051 2.941813 33.51915 2.01127 11.217539 5.294456 21.658383 10.469799 31.850373 5.087172 10.018197 11.732893 19.184637 19.661901 27.13297 7.927393 7.947339 17.069974 14.608594 27.061639 19.708379 10.172107 5.19156 20.592507 8.483943 31.788983 10.500556 11.026348 1.98598 22.274085 2.644184 33.423772 2.946474 5.119172.138376 10.238281.197716 15.358447.228846 6.078981.037406 13.630827.35001 19.709435.35001l68.40541-.001926 53.382536.001926 69.366038-.253141c6.094143 0 12.187727.003169 18.281374-.03374 5.133153-.031565 10.264628-.090656 15.396476-.228721 11.181502-.301482 22.461055-.959002 33.519155-2.941814 11.217541-2.01127 21.658386-5.294457 31.850377-10.4698 10.018198-5.087172 19.18464-11.732894 27.132974-19.661904 7.94734-7.927394 14.608596-17.069976 19.708382-27.061643 5.19156-10.172108 8.483944-20.59251 10.500557-31.788987 1.985981-11.026349 2.644184-22.274088 2.946474-33.423777.138376-5.119172.197716-10.238283.228846-15.358449.037406-6.078982.35001-13.630829.35001-19.709438l-.001926-68.40542.001926-53.382536-.253141-69.366027c0-6.094142.003169-12.187726-.03374-18.281371-.031565-5.133152-.090656-10.264627-.228721-15.396474-.301482-11.181501-.959002-22.461051-2.941813-33.51915-2.01127-11.217539-5.294456-21.658383-10.469799-31.850373-5.087172-10.018197-11.732893-19.184637-19.661901-27.13297-7.927393-7.947339-17.069974-14.608594-27.061639-19.708379-10.172107-5.19156-20.592507-8.483943-31.788983-10.500556-11.026348-1.98598-22.274085-2.644184-33.423772-2.946474-5.119172-.138376-10.238281-.197716-15.358447-.228846-6.078981-.037406-13.630827-.35001-19.709435-.35001l-68.40541.001926-53.382536-.001926-69.366038.253141c-6.094143 0-12.187727-.003169-18.281374.03374-5.133153.031565-10.264628.090656-15.396476.228721-11.181502.301482-22.461055.959002-33.519155 2.941814-11.217541 2.01127-21.658386 5.294457-31.850377 10.4698-10.018198 5.087172-19.18464 11.732894-27.132974 19.661904-7.94734 7.927394-14.608596 17.069976-19.708382 27.061643-5.19156 10.172108-8.483944 20.59251-10.500557 31.788987-1.985981 11.026349-2.644184 22.274088-2.946474 33.423777-.138376 5.119172-.197716 10.238283-.228846 15.358449-.037406 6.078982-.35001 13.630829-.35001 19.709438l.001926 68.40542-.001926 53.382536z" fill="#080a0c" fill-rule="evenodd"/><g fill="#fcfcfd"><path d="m361.394241 267.722498c-15.531243 0-29.062539 8.530785-36.183439 21.158887-1.802081 3.195609-5.148385 5.207299-8.816793 5.207299l-55.510558.000103c-8.794745 0-14.291486-9.520684-9.894113-17.137149l27.755356-48.073398c1.826641-3.163819 5.222014-5.073268 8.874989-5.032454 14.935181.167051 29.51211-7.73337 37.122628-21.949227 10.207655-19.067415 3.846022-43.151492-14.451974-54.681609-20.054032-12.636613-46.397811-5.987999-58.138767 14.347939-7.76557 13.450539-7.14341 29.434225.232374 41.915375 1.866327 3.158282 1.935496 7.062089.101164 10.23924l-28.262713 48.952442c-1.841305 3.189251-5.274263 5.07214-8.956668 5.032761-7.182994-.076809-14.478585 1.706711-21.150683 5.558834-19.862062 11.467358-26.66737 36.864975-15.200012 56.727037s36.864975 26.667216 56.727037 15.199858c6.672098-3.852123 11.864527-9.278414 15.38947-15.537499 1.807054-3.208787 5.154179-5.24037 8.83679-5.240422h56.525427c3.653231 0 7.00456 1.985796 8.795719 5.169817 7.323023 13.017631 21.453508 21.691369 37.569892 21.174474 22.186472-.711685 40.081658-19.154479 40.161594-41.352282.082808-23.004961-18.541137-41.679821-41.526717-41.680027zm-131.029463 68.3254c-14.814482 8.553141-33.757711 3.477361-42.310852-11.337173-8.553192-14.814533-3.477309-33.75766 11.337173-42.310801s33.75766-3.477309 42.310852 11.337224c8.55309 14.814379 3.477258 33.757609-11.337173 42.31075z"/><path d="m385.43335 398.023919c-27.67988 18.99881-61.190707 30.119145-97.300465 30.119145v.000051c-95.075372 0-172.149165-77.071075-172.149165-172.143115s77.073793-172.143064 172.149165-172.143064c36.109758 0 69.620585 11.120334 97.300465 30.119145 1.121929.770035 2.646463-.016818 2.646463-1.377633v-30.749201c0-.608009-.326257-1.171717-.85556-1.470952-29.264507-16.547804-63.073647-25.996397-99.091368-25.996397-111.350603 0-201.618103 90.267499-201.618103 201.618103s90.267499 201.618103 201.618103 201.618103c36.017721 0 69.82686-9.448644 99.091368-25.996345.529303-.299287.85556-.862995.85556-1.471055v-30.74915c0-1.360816-1.524534-2.14772-2.646463-1.377633z"/></g></svg>